<svg width="96" height="96" viewBox="0 0 96 96" fill="none" xmlns="http://www.w3.org/2000/svg">
<path d="M56 32H16C11.588 32 8 35.588 8 40V80C8 84.412 11.588 88 16 88H56C60.412 88 64 84.412 64 80V40C64 35.588 60.412 32 56 32Z" fill="white"/>
<path d="M80 8H40C37.8783 8 35.8434 8.84285 34.3431 10.3431C32.8429 11.8434 32 13.8783 32 16V24H64C66.1217 24 68.1566 24.8429 69.6569 26.3431C71.1571 27.8434 72 29.8783 72 32V64H80C82.1217 64 84.1566 63.1571 85.6569 61.6569C87.1571 60.1566 88 58.1217 88 56V16C88 13.8783 87.1571 11.8434 85.6569 10.3431C84.1566 8.84285 82.1217 8 80 8Z" fill="white"/>
</svg>
