<svg width="512" height="512" viewBox="0 0 512 512" fill="none" xmlns="http://www.w3.org/2000/svg">
<g clip-path="url(#clip0_60_2)">
<path d="M448 0H224C188.7 0 160 28.65 160 64V288C160 323.35 188.65 352 224 352H448C483.35 352 512 323.35 512 288V64C512 28.65 483.3 0 448 0ZM464 288C464 296.822 456.822 304 448 304H224C215.2 304 208 296.8 208 288V64C208 55.178 215.178 48 224 48H448C456.822 48 464 55.178 464 64V288ZM304 448C304 456.822 296.822 464 288 464H64C55.178 464 48 456.822 48 448V224C48 215.178 55.178 208 64 208H128V160H64C28.65 160 0 188.7 0 224V448C0 483.35 28.65 512 64 512H288C323.35 512 352 483.35 352 448V384H304V448Z" fill="white"/>
</g>
<defs>
<clipPath id="clip0_60_2">
<rect width="512" height="512" fill="white"/>
</clipPath>
</defs>
</svg>
