<svg width="35" height="35" viewBox="0 0 35 35" fill="none" xmlns="http://www.w3.org/2000/svg">
<path d="M35 17.5C35 22.3054 33.0631 26.6585 29.9275 29.8211C26.7565 33.0192 22.3596 35 17.5 35C12.9999 35 8.89656 33.3015 5.79606 30.5105C2.2375 27.3072 0 22.6649 0 17.5C0 7.83502 7.83502 0 17.5 0C27.165 0 35 7.83502 35 17.5Z" fill="#C4C3C1"/>
<path fill-rule="evenodd" clip-rule="evenodd" d="M29.9275 29.8211C26.7565 33.0192 22.3596 35 17.5 35C12.9999 35 8.89656 33.3015 5.79606 30.5105C7.62403 25.5431 12.3982 22 18 22C23.339 22 27.9262 25.2185 29.9275 29.8211Z" fill="white"/>
<circle cx="18" cy="15" r="5" fill="white"/>
</svg>
